<?xml version="1.0" encoding="utf-8"?>
<svg version="1.1" xmlns:xlink="http://www.w3.org/1999/xlink" width="85px" height="78px" xmlns="http://www.w3.org/2000/svg">
  <g transform="matrix(1 0 0 1 -378 -9 )">
    <path d="M 420.5 9  C 444.3 9  463 26.16  463 48  C 463 69.84  444.3 87  420.5 87  C 396.7 87  378 69.84  378 48  C 378 26.16  396.7 9  420.5 9  Z " fill-rule="nonzero" fill="#ffff00" stroke="none" />
    <path d="M 420.5 9.5  C 444.02 9.5  462.5 26.44  462.5 48  C 462.5 69.56  444.02 86.5  420.5 86.5  C 396.98 86.5  378.5 69.56  378.5 48  C 378.5 26.44  396.98 9.5  420.5 9.5  Z " stroke-width="1" stroke="#797979" fill="none" />
  </g>
</svg>