<?xml version="1.0" encoding="utf-8"?>
<svg version="1.1" xmlns:xlink="http://www.w3.org/1999/xlink" width="85px" height="78px" xmlns="http://www.w3.org/2000/svg">
  <g transform="matrix(1 0 0 1 -378 -103 )">
    <path d="M 420.5 103  C 444.3 103  463 120.16  463 142  C 463 163.84  444.3 181  420.5 181  C 396.7 181  378 163.84  378 142  C 378 120.16  396.7 103  420.5 103  Z " fill-rule="nonzero" fill="#d9001b" stroke="none" />
    <path d="M 420.5 103.5  C 444.02 103.5  462.5 120.44  462.5 142  C 462.5 163.56  444.02 180.5  420.5 180.5  C 396.98 180.5  378.5 163.56  378.5 142  C 378.5 120.44  396.98 103.5  420.5 103.5  Z " stroke-width="1" stroke="#797979" fill="none" />
  </g>
</svg>